<?xml version="1.0" encoding="utf-8"?>
<!-- Generator: Adobe Illustrator 23.0.1, SVG Export Plug-In . SVG Version: 6.00 Build 0)  -->
<svg version="1.1"
	 id="Ebene_1" image-rendering="optimizeQuality" text-rendering="geometricPrecision" shape-rendering="geometricPrecision"
	 xmlns="http://www.w3.org/2000/svg" xmlns:xlink="http://www.w3.org/1999/xlink" x="0px" y="0px" viewBox="0 0 411 528"
	 style="enable-background:new 0 0 411 528;" xml:space="preserve">
<path d="M154.6,48.5c79.3,0.5,158.6,0.9,237.6,1.4c5.3,0,9.7,3.8,10.7,8.7l0,0c6,28.9,4.5,74.3-7.3,105.1
	c-8.2,21.3-21.2,40.6-39.9,54.7c17.6,14.3,30.1,33.3,38.3,54.7c11.1,29.2,13.7,73.2,9.1,105c-0.8,5.5-5.5,9.4-10.9,9.4l0,0h-83.3
	c0.9-6.7,1.4-13.5,1.4-20.3v-1.7h72.2c2.4-25.4-0.4-61.8-9-84.7c-8.1-21.4-21.4-39.8-40.5-51.8H214.3c-34.3-12.8-72.9-12.8-108,1.8
	c-7.5,3.1-14.6,6.8-21.4,11c-2-5.9-4.3-11.8-6.9-17.8c-1.2-1.9-1.8-4-1.8-6.2s0.6-4.4,1.8-6.2c13-29.5,18.2-58.9,18-88.2
	C95.8,93.3,90,52.6,81.2,22c-0.4-1.1-0.6-2.3-0.6-3.6c0-6.1,4.9-11,11-11h253c6.1,0,11,4.9,11,11v11H105.9
	c7.2,27.8,11.7,65.8,11.9,93.9c0.1,25.9-3.4,51.8-12.2,77.8c13.1-16.1,22.7-34.1,28.9-53.3c7.9-24.2,10.5-60.6,8.2-87.3
	c-0.5-6,4-11.4,10-11.9C153.4,48.5,154,48.5,154.6,48.5L154.6,48.5z M282.2,370.4c0,32.7-12.9,63.9-36,86.9
	c-31.9,31.9-78.9,43.8-122.1,30.9c-9.9-3-19.4-7.2-28.3-12.5l-46.3,42.1c-2.4,2.2-6.1,2-8.3-0.4l-31.9-35c-2.2-2.4-2-6.1,0.3-8.3
	l0,0l44.5-40c-11.8-19.3-17.9-41.2-17.9-63.8c0-32.7,12.9-63.8,36-86.9c11.4-11.4,25-20.5,39.9-26.7c45.9-19.1,99.1-8.2,134,26.7
	c11.3,11.3,20.4,24.8,26.7,39.9C278.9,337.9,282.2,353.8,282.2,370.4z M228.6,439.8c28-28,36.4-70.4,21.3-106.9
	c-27.1-65.4-111.5-80.5-160.1-31.9c-28,28.1-36.4,70.4-21.3,106.9c15.3,36.7,51,60.6,90.7,60.6c13.3,0,26-2.6,37.5-7.4
	C208.7,456.2,219.5,448.9,228.6,439.8L228.6,439.8z M305.1,406.3h50.5v11c0,6.1-4.9,11-11,11h-47.5
	C300.4,421.2,303,413.8,305.1,406.3L305.1,406.3z M250.6,248.7c3.5-1.2,7.3,0.1,9.3,3.2c1.9,2.9,3.6,6,5.3,9.2
	C260.6,256.6,255.7,252.5,250.6,248.7z M307.3,260.5c-2.3-3.7-1.2-8.6,2.4-10.9c3.7-2.3,8.6-1.2,10.9,2.4
	c7.1,11.2,13.4,25.6,18.1,40.1c5,15.5,8.2,31.2,8.9,43.6c0.2,4.3-3.1,8.1-7.4,8.3c-4.3,0.2-8.1-3.1-8.3-7.4
	c-0.6-11.1-3.6-25.5-8.2-39.7C319.4,283.8,313.7,270.7,307.3,260.5L307.3,260.5z M199,184.6c-2.4,3.6-7.3,4.7-10.9,2.3
	c-3.6-2.4-4.7-7.3-2.3-10.9c6.5-10.1,12.3-23.3,16.7-36.7c4.7-14.5,7.8-29.1,8.4-40.4c0.2-4.3,3.9-7.7,8.3-7.4
	c4.3,0.2,7.7,3.9,7.4,8.3c-0.7,12.6-4.1,28.7-9.1,44.4C212.8,158.8,206.4,173.4,199,184.6z M259.9,183.8c-2.3,3.7-7.2,4.7-10.9,2.4
	l0,0c-3.6-2.3-4.7-7.2-2.4-10.9c6.4-10.1,12.1-23.2,16.4-36.6c4.6-14.3,7.6-28.7,8.2-39.8c0.2-4.3,3.9-7.7,8.3-7.4
	c4.3,0.2,7.7,3.9,7.4,8.3c-0.7,12.4-4,28.3-9,43.8C273.4,158.1,267.1,172.5,259.9,183.8z M320.6,183.6c-2.3,3.7-7.2,4.8-10.9,2.4
	l0,0c-3.7-2.3-4.8-7.2-2.4-10.9c6.4-10.2,12.1-23.3,16.4-36.5c4.6-14.2,7.6-28.6,8.2-39.7c0.2-4.3,3.9-7.7,8.3-7.4
	c4.3,0.2,7.7,3.9,7.4,8.3c-0.7,12.4-3.9,28.2-8.9,43.6C334,158,327.7,172.4,320.6,183.6z M128.6,207h204.6
	c20.3-11.5,33.9-30.1,41.9-51.2c9.1-23.8,11.2-60.8,7.9-84.1l-217.7-1.2c0.9,25.4-2.3,60.6-9.9,84
	C149.3,173.2,140.4,190.8,128.6,207L128.6,207z"/>
</svg>
