<?xml version="1.0" encoding="utf-8"?>
<!-- Generator: Adobe Illustrator 23.0.1, SVG Export Plug-In . SVG Version: 6.00 Build 0)  -->
<svg version="1.1" id="Layer_1" xmlns="http://www.w3.org/2000/svg" xmlns:xlink="http://www.w3.org/1999/xlink" x="0px" y="0px"
	 viewBox="0 0 122.9 114" style="enable-background:new 0 0 122.9 114;" xml:space="preserve">
<style type="text/css">
	.st0{fill-rule:evenodd;clip-rule:evenodd;}
</style>
<title>homepage</title>
<path class="st0" d="M45.1,14.3l40.5,40.5c2.1,2.1,2.2,2.4,0,4.6L45.1,99.8H4.4v-30h27.4c1.9,0,3.4-1.5,3.4-3.4V47.6
	c0-1.9-1.5-3.4-3.4-3.4H4.4v-30L45.1,14.3L45.1,14.3z M117.6,55.7L61.1-4.4l-7.8,14.8l42.9,42.5c3.7,3.6,3.7,3.7,0.2,7.3l-43,43.4
	l7.8,14.8l56.6-60.3C118.7,57.1,118.8,56.9,117.6,55.7z"/>
</svg>
