<?xml version="1.0" encoding="utf-8"?>
<!-- Generator: Adobe Illustrator 23.0.1, SVG Export Plug-In . SVG Version: 6.00 Build 0)  -->
<svg version="1.1"
	 id="Ebene_1" image-rendering="optimizeQuality" text-rendering="geometricPrecision" shape-rendering="geometricPrecision"
	 xmlns="http://www.w3.org/2000/svg" xmlns:xlink="http://www.w3.org/1999/xlink" x="0px" y="0px" viewBox="0 0 498 525"
	 style="enable-background:new 0 0 498 525;" xml:space="preserve">
<path d="M63.8,49l27.9,67.5c2.1,5.1,0.9,10.8-2.6,14.7c-17.8,19.4-32.1,42.1-41.8,67.1c-9.4,24-14.5,50.2-14.5,77.7
	c0,59.1,24,112.7,62.7,151.5c38.8,38.8,92.4,62.8,151.5,62.8s112.7-24,151.5-62.7s62.7-92.4,62.7-151.5s-24-112.7-62.7-151.5
	C359.7,85.8,306.2,61.9,247,61.9c-17.5,0-34.3,2-50.3,5.9c-16.6,4-32.4,9.9-47.3,17.5c-4.1,2.1-8.7,2-12.5,0.1l0,0L63.8,49L63.8,49z
	 M336.4,253.8c4,0,7.8,0.7,11.2,2.1s6.5,3.5,9.3,6.4c2.8,2.8,4.9,5.9,6.3,9.3c1.4,3.4,2.1,7,2.1,10.8c0,3.9-0.7,7.5-2.1,10.8
	c-1.4,3.3-3.5,6.4-6.3,9.2c-2.8,2.8-5.9,4.9-9.3,6.3c-3.4,1.4-7.2,2.1-11.2,2.1c-3.9,0-7.6-0.7-11-2.1s-6.5-3.5-9.4-6.3
	c-2.8-2.8-5-5.8-6.4-9.1c-1.4-3.3-2.2-6.9-2.2-10.8c0-4,0.7-7.7,2.1-11.1c1.4-3.4,3.6-6.5,6.4-9.3c2.9-2.8,6-4.9,9.4-6.2
	C328.7,254.5,332.4,253.8,336.4,253.8L336.4,253.8z M168.7,266.4c-3.7-1-11.1-3.2-11.1,3.1c0,1.4,0.8,3.1,2.3,5.1
	c1.6,2.2,4.1,4.8,7.3,7.7c3.3,2.9,7.2,5.9,11.7,9.1c4.5,3.1,9.6,6.4,15.4,9.9c0.6,0.4,0.8,1.2,0.5,1.8l-8.6,11.6
	c-0.4,0.5-1.2,0.7-1.8,0.3c-9.3-5.4-17.4-10.8-24.4-16.2c-7-5.5-12.8-11.1-17.3-16.8l-0.1-0.1c-4.6-5.7-8-11.5-10.4-17.4
	c-6.4-16.6-5.4-42.7,14-50.2c12.2-4.7,26.1-0.8,38,2.9L241,236c4.3,1.2,9.1,2.7,13.5,3.3c7.4,0.9,12.2-2.4,12.2-10.4v-16.4
	c0-0.7,0.6-1.3,1.3-1.3l0.4,0.1l15.7,4.3c0.6,0.1,1,0.7,1,1.3l2.6,83.9c0,0.7-0.5,1.3-1.3,1.4l-0.4-0.1L168.7,266.4L168.7,266.4z
	 M62.7,119.1L24.3,26.2c-2-3.9-2-8.5,0-12.4C27.7,6.9,36.1,4.1,43,7.5l100.2,49.8c15.1-7.2,30.9-12.8,47.1-16.7
	c18.6-4.5,37.6-6.7,56.7-6.8c66.8,0,127.4,27.1,171.2,70.9c43.8,44,70.9,104.5,70.9,171.4S462,403.4,418.2,447.2
	S313.8,518.1,247,518.1S119.6,491,75.8,447.2S4.9,342.9,4.9,276c0-30.9,5.8-60.5,16.4-87.7C31.2,163.1,45.2,139.7,62.7,119.1z"/>
</svg>
