<?xml version="1.0" encoding="utf-8"?>
<!-- Generator: Adobe Illustrator 23.0.1, SVG Export Plug-In . SVG Version: 6.00 Build 0)  -->
<svg version="1.1"
	 id="Ebene_1" image-rendering="optimizeQuality" text-rendering="geometricPrecision" shape-rendering="geometricPrecision"
	 xmlns="http://www.w3.org/2000/svg" xmlns:xlink="http://www.w3.org/1999/xlink" x="0px" y="0px" viewBox="0 0 512 512"
	 style="enable-background:new 0 0 512 512;" xml:space="preserve">
<path d="M512,75v362c0,20.6-8.4,39.4-22,53c-13.6,13.6-32.3,22-53,22H75c-20.6,0-39.4-8.4-53-22C8.4,476.4,0,457.6,0,437V75
	c0-20.6,8.4-39.4,22-53l0,0C35.7,8.4,54.4,0,75,0h362c20.6,0,39.4,8.4,53,22l0,0C503.6,35.7,512,54.4,512,75z M210.2,152.2l-56.5,56
	l121.1,121.1l56.2-56.2L210.2,152.2z M145.7,192l48.2-47.8l-52.4-14.7c-6.7-1.9-12.2-3.3-16.5-4.3c5.3,17.7,10.8,35.2,16.3,52.7
	l4.3,13.9L145.7,192L145.7,192z M387.9,340.2c0.8-0.8,1.4-1.6,1.7-2.5c0.3-0.8,0.5-1.6,0.5-2.7c0-1-0.2-1.9-0.5-2.7
	c-0.3-0.8-0.9-1.6-1.7-2.4l-19.3-19.3l-56.5,56.2l19.6,19.6c0.6,0.6,1.3,1.1,2.1,1.4c0.9,0.3,1.9,0.5,3.1,0.5s2.2-0.1,3-0.5
	c0.7-0.3,1.4-0.8,2.1-1.4L387.9,340.2L387.9,340.2z M405.4,344.4c-1.2,2.9-3,5.5-5.4,7.9l-46,46.3c-2.3,2.3-5,4.1-7.9,5.2
	c-3,1.2-6.2,1.8-9.3,1.8c-3.2,0-6.4-0.6-9.3-1.7c-3-1.2-5.7-3-8-5.2l-25.7-25.7c-3.4-3.4-3.3-8.8,0-12.2l68.7-68.4
	c3.4-3.4,8.8-3.4,12.2,0c0,0,0,0,0,0l25.4,25.4c2.3,2.3,4.1,5,5.4,7.9c1.3,3,1.9,6.1,1.9,9.4C407.3,338.3,406.7,341.4,405.4,344.4
	L405.4,344.4z M133.2,210.2l-8.2-27.2c-5.5-17.5-10.9-34.9-16.3-52.5c-1.8-6.1-3-10.1-3.6-12.1l-0.2-0.9c-0.1-0.8-0.2-1.6-0.1-2.3
	l0.2-1.2c0.8-4.3,3.6-6.8,8.5-7.5l0.5-0.1c1.4-0.2,3.2-0.1,5.2,0.1c5.3,0.6,14.4,2.7,27.1,6.3l66.1,18.6c1.4,0.4,2.7,1.1,3.8,2.2
	L349.4,267c3.4,3.4,3.4,8.8,0,12.2c0,0,0,0,0,0l-68.5,68.4c-3.4,3.4-8.8,3.3-12.1,0L135.4,214.3
	C134.3,213.2,133.5,211.8,133.2,210.2z M494.8,437V75c0-15.9-6.5-30.3-17-40.8c-10.5-10.5-24.9-17-40.8-17H75
	c-15.9,0-30.3,6.5-40.8,17c-10.5,10.5-17,24.9-17,40.8v362c0,15.9,6.5,30.3,17,40.8s24.9,17,40.8,17h362c15.9,0,30.3-6.5,40.8-17
	S494.8,452.9,494.8,437L494.8,437z"/>
</svg>
