<?xml version="1.0" encoding="utf-8"?>
<!-- Generator: Adobe Illustrator 23.0.1, SVG Export Plug-In . SVG Version: 6.00 Build 0)  -->
<svg version="1.1" id="Layer_1" xmlns="http://www.w3.org/2000/svg" xmlns:xlink="http://www.w3.org/1999/xlink" x="0px" y="0px"
	 viewBox="0 0 122.6 122.9" style="enable-background:new 0 0 122.6 122.9;" xml:space="preserve">
<style type="text/css">
	.st0{fill-rule:evenodd;clip-rule:evenodd;}
</style>
<title>qr-code-scan</title>
<path class="st0" d="M96,26.8V52H70.9V26.8H96z M122.8,35.8V23.2c0-3-0.6-6-1.8-8.8c-1.2-2.8-2.9-5.3-5-7.5l0,0
	c-2.1-2.1-4.7-3.8-7.5-5c-2.8-1.2-5.8-1.8-8.8-1.8H84.1v10.2h15.6c1.7,0,3.3,0.4,4.9,1c1.6,0.6,3,1.6,4.2,2.8l0,0
	c2.4,2.4,3.8,5.7,3.8,9.1v12.6H122.8z M122.8,99.7v-8.2h-10.2v8.2c0,1.7-0.4,3.3-1,4.9c-0.6,1.6-1.6,3-2.8,4.2l-0.4,0.3l0,0
	c-1.1,1-2.4,1.9-3.8,2.4c-1.5,0.7-3.2,1-4.9,1H84.1v10.2h15.6c5.9,0,11.7-2.3,15.9-6.4l0,0l0.4-0.4c2.1-2.1,3.8-4.7,5-7.5
	C122.2,105.7,122.8,102.7,122.8,99.7z M22.9,122.7h17.3v-10.2H22.9c-1.7,0-3.3-0.3-4.9-1c-1.6-0.7-3-1.6-4.2-2.8
	c-2.4-2.4-3.8-5.7-3.8-9.1v-8.2H-0.1v8.2c0,6.1,2.4,12,6.8,16.3c2.1,2.1,4.7,3.8,7.5,5C16.9,122.1,19.9,122.7,22.9,122.7L22.9,122.7
	z M-0.1,23.2v12.6h10.2V23.2c0-3.4,1.4-6.7,3.8-9.1l0.2-0.3c1.2-1.1,2.6-2,4.1-2.6c1.5-0.6,3.1-0.9,4.7-0.9h17.3V0.1H22.9
	c-2.9,0-5.8,0.6-8.6,1.7C11.6,2.9,9.1,4.5,7,6.6L6.6,6.9c-2.1,2.1-3.8,4.7-5,7.5C0.5,17.2-0.1,20.2-0.1,23.2L-0.1,23.2z M33,89.7
	v6.4h-6.3v-6.4H33z M33,77.3v6.4h-6V70.9h12.3v6.2h6.3v6.3H58v6.5h-6.1V96h-6.3v-6.1h-6.3V77.4L33,77.3L33,77.3z M45.6,58.3v6.2H52
	v-6h6.3v6h6.3v-6.1h-6.3v-6.4h6.3v6.3h18.8v6.4H64.6v6.2h-6.3V77h6.3v6.4h-6.3v-6.1H52v-6.4H39.5v-6.2H26.9v-6.4H45.6z M64.6,89.6
	V96h-6.3v-6.4C58.3,89.6,64.6,89.6,64.6,89.6z M64.6,39.4v6.4h-6.3v-6.4C58.3,39.4,64.6,39.4,64.6,39.4z M64.6,26.8v6.4h-6.3v-6.4
	C58.3,26.8,64.6,26.8,64.6,26.8z M96,58.3v6.4h-6.3v-6.4H96z M51.9,26.7v25.2H26.8V26.7H51.9z M45.8,32.8v13H32.8v-13H45.8z
	 M96,70.8V96H70.9V70.8L96,70.8L96,70.8z M89.9,77v13H77V77H89.9L89.9,77z M89.9,33v13H77V33H89.9L89.9,33z"/>
</svg>
