<?xml version="1.0" encoding="utf-8"?>
<!-- Generator: Adobe Illustrator 23.0.1, SVG Export Plug-In . SVG Version: 6.00 Build 0)  -->
<svg version="1.1" id="Layer_1" xmlns="http://www.w3.org/2000/svg" xmlns:xlink="http://www.w3.org/1999/xlink" x="0px" y="0px"
	 viewBox="0 0 122.4 122.9" style="enable-background:new 0 0 122.4 122.9;" xml:space="preserve">
<g>
	<path d="M113.8,42.1c-3.3,3.3-8.1,4.5-13.2,3.9c-5.3-0.7-10.9-3.5-15.6-8.1s-7.4-10.3-8.1-15.6c-0.7-5.1,0.6-9.9,3.9-13.2
		c3.3-3.3,8.1-4.6,13.2-3.9c5.3,0.7,10.9,3.5,15.6,8.1s7.4,10.3,8.1,15.6C118.4,34,117.1,38.8,113.8,42.1L113.8,42.1z M108.8,18
		c-0.7-1.1-2.2-1.4-3.3-0.7c-1.1,0.7-1.4,2.2-0.7,3.3c1,1.5,1.6,3,1.9,4.3c0.3,1.3,0.3,2.5,0.1,3.6c-0.4,2.3-1.3,4.1-2.6,5.3
		c-1.1,1.1-2.6,1.8-4.1,2.1c-1.5,0.3-3.2,0-4.8-0.7c-2-0.9-4-2.7-5.6-5.5c-0.6-1.1-1.1-2.1-1.4-3.2c-0.3-1-0.5-1.9-0.5-2.7
		c0-1.5,0.6-3.1,1.5-4.4c0.7-1,1.6-1.8,2.6-2.2c0.9-0.4,1.8-0.6,2.6-0.4c0.8,0.2,1.6,0.7,2.4,1.7c0.9,1.1,1.5,2.4,1.6,3.7
		c0.1,0.8,0.1,1.5-0.2,2c-0.2,0.4-0.5,0.7-0.9,0.9c-0.6,0.3-1.4,0.4-2.6,0.2c-1.3-0.2-2.5,0.8-2.7,2c-0.2,1.3,0.8,2.5,2.1,2.6
		c2,0.3,3.7,0,5.1-0.6c1.7-0.7,2.8-2,3.4-3.5c0.6-1.4,0.7-2.9,0.5-4.5c-0.3-2.1-1.3-4.3-2.7-6c-1.5-1.8-3.2-2.9-5-3.3
		c-2-0.5-4-0.2-5.8,0.7c-1.7,0.8-3.2,2.1-4.3,3.6c-1.6,2.1-2.6,4.8-2.5,7.4c0,1.4,0.3,2.7,0.8,4.1c0.4,1.3,1,2.6,1.8,4
		c2.1,3.7,4.8,6.2,7.7,7.5c2.5,1.1,5.1,1.5,7.5,1.1c2.5-0.4,4.8-1.5,6.6-3.3c2-2,3.5-4.7,4-8c0.3-1.7,0.3-3.4-0.2-5.3
		C110.9,22,110.1,20,108.8,18L108.8,18z M39.9,97.4c-1.2,0.5-1.8,1.9-1.3,3.1c0.5,1.2,1.9,1.8,3.1,1.3c1.5-0.6,3.5-2.2,5.9-4.1
		c4.2-3.3,9.6-7.6,13.1-7.7c1.3,0,2.3-1.1,2.3-2.4s-1.1-2.3-2.4-2.3c-5.1,0.1-11.2,5-15.9,8.7C42.6,95.6,40.8,97,39.9,97.4
		L39.9,97.4z M23.1,81.2c0.7-1.1,0.4-2.6-0.7-3.3s-2.6-0.4-3.3,0.7c-3.8,5.9-7.9,9-11.3,11.6c-1.1,0.8-2.2,1.7-3.2,2.5
		c-0.1-0.7-0.1-1.3-0.1-1.9c0-3,1-6,3.3-8.7l27.8-27.8c-0.2,1.5-0.5,2.9-0.9,4.4c-1,3.2-2.5,6.3-4.5,9.2c-0.7,1.1-0.5,2.6,0.6,3.3
		c1.1,0.7,2.6,0.5,3.3-0.6c2.3-3.3,4-6.8,5.2-10.5c1-3.4,1.5-6.9,1.3-10.7L72,17.8c-0.1,1.7-0.1,3.4,0.2,5.1
		c0.1,0.7,0.2,1.5,0.4,2.2C61.7,35.6,53.3,47.2,46.7,57.9C40,68.8,35.3,78.8,32.2,85.7c-0.5,1.2,0,2.6,1.2,3.1s2.6,0,3.1-1.2
		c3.1-6.8,7.7-16.6,14.3-27.3c6-9.8,13.7-20.4,23.4-30.2c1.2,3,3,5.9,5.2,8.6c-3,2.4-5.4,5.1-7.6,7.5c-2.2,2.4-4.2,4.6-6.1,5.8
		c-1.1,0.7-1.5,2.2-0.8,3.3c0.7,1.1,2.2,1.5,3.3,0.8c2.5-1.5,4.6-3.9,7.1-6.6c2.2-2.4,4.6-5,7.4-7.2c3.3,3,6.9,5.3,10.6,6.7
		c-2.8,5.1-8,8.4-13.4,11.9c-6.5,4.1-13.3,8.5-17.7,16.4c-0.6,1.2-0.2,2.6,0.9,3.2s2.6,0.2,3.2-0.9c3.8-6.9,10.1-10.9,16.1-14.7
		c6.3-4,12.3-7.8,15.5-14.5c0.7,0.2,1.4,0.3,2.2,0.4c1.7,0.2,3.5,0.3,5.1,0.2l-64.5,64.4c-1.7,1.2-3.3,1.9-5,2.3
		c-1.8,0.4-3.7,0.4-5.7,0.2c-2.2-0.2-4.5-0.8-6.8-1.8c0.6-1.1,1.4-2.2,2.5-3.2c1.7-1.7,4-3.2,6.8-4.7c1.2-0.6,1.6-2.1,1-3.2
		c-0.6-1.2-2.1-1.6-3.2-1c-3.1,1.7-5.8,3.5-7.8,5.5c-1.4,1.3-2.5,2.8-3.4,4.3c-0.3-0.2-0.7-0.4-1-0.7c-2-1.4-3.9-3.1-5.6-4.9
		l0.4-0.3c3.9-3.2,10.2-8.1,12.4-13.3c0.5-1.2,0-2.6-1.2-3.1c-1.2-0.5-2.6,0-3.1,1.2c-1.8,4.1-7.5,8.6-11.1,11.5l-0.5,0.4
		c-0.5-0.7-0.9-1.4-1.4-2.1c-0.8-1.4-1.5-2.9-2.1-4.4c1.2-1.4,2.8-2.6,4.7-4C14.3,91.1,18.8,87.8,23.1,81.2L23.1,81.2z M7.1,109.2
		c0.1,0.1,0.1,0.2,0.2,0.2l0.1,0.1c2.3,2.8,5,5.3,8,7.4c1.2,0.8,2.4,1.6,3.6,2.2c0.1,0.1,0.2,0.1,0.3,0.2c3.3,1.8,6.9,2.9,10.4,3.2
		c2.3,0.2,4.7,0.2,7-0.3c2.4-0.5,4.7-1.5,7-3.2c0.1-0.1,0.1-0.1,0.2-0.2l0,0h0l0,0l0,0L117.6,45c0.1-0.1,0.2-0.2,0.3-0.3
		c3.9-4.3,5.3-10.3,4.5-16.4c-0.8-6.3-4.1-12.9-9.4-18.3c-5.4-5.4-12-8.6-18.4-9.4C88.4-0.3,82.5,1.1,78.1,5
		c-0.1,0.1-0.2,0.2-0.3,0.3L4.2,78.8C4.1,79,4,79.2,3.9,79.3C1,82.8-0.2,86.7-0.3,90.6c0,4.9,1.7,9.8,4.2,14.1
		C4.9,106.3,5.9,107.8,7.1,109.2L7.1,109.2z M62.4,64.5c0.5-1.2-0.1-2.6-1.3-3.1s-2.6,0.1-3.1,1.3c-0.4,0.9-1.8,2.9-3.5,5.4
		c-2.3,3.3-5.2,7.4-7.1,11.1c-0.6,1.2-0.2,2.6,1,3.2c1.2,0.6,2.6,0.2,3.2-1c1.9-3.5,4.6-7.4,6.8-10.6C60.2,68.1,61.8,65.8,62.4,64.5
		L62.4,64.5z"/>
</g>
</svg>
