<svg xmlns="http://www.w3.org/2000/svg" shape-rendering="geometricPrecision" text-rendering="geometricPrecision" image-rendering="optimizeQuality" fill-rule="evenodd" clip-rule="evenodd" viewBox="0 0 500 511.78"><path fill-rule="nonzero" d="m230.01 146.47-16.43 107.39c47.97-4.32 101.97-15.6 147.47-47.71 49.25-34.76 89.05-94.49 101.31-197.34.64-5.46 5.62-9.38 11.09-8.74 4.21.5 7.49 3.55 8.49 7.43 10.97 32.86 16.63 63.91 17.81 92.98 3.28 79.5-26.44 144.42-70.3 193.9-43.55 49.12-101.14 82.99-154.03 100.77-21.75 7.31-42.82 11.95-61.85 13.82l16.4 91.1c.96 5.4-2.65 10.59-8.05 11.55a9.9 9.9 0 0 1-8.09-2.13L3.62 335.59c-4.24-3.5-4.84-9.81-1.34-14.05l1.15-1.16 210.18-183.11c4.15-3.62 10.47-3.18 14.09.97 2.05 2.34 2.79 5.39 2.31 8.23zm-38.08 116.85 14.25-93.08L25.4 327.71l180.14 149.06-13.69-76.58c-.21-5.49 4.07-10.13 9.57-10.34 20.03-.82 43.3-5.38 67.68-13.59 49.99-16.8 104.37-48.76 145.42-95.08 40.76-45.97 68.35-106.2 65.32-179.92-.59-14.3-2.33-29.14-5.35-44.48-18.33 82.21-56.39 133.53-101.97 165.7-53.17 37.53-116.12 48.55-169.79 52.26l-2.4-.06c-5.45-.81-9.21-5.91-8.4-11.36z"/></svg>