<svg xmlns="http://www.w3.org/2000/svg" version="1.0" viewBox="0 0 579 579"><path d="M25.301 289.672 289.33 553.7l264.073-264.072c-88.053-87.952-175.931-176.079-264.03-263.985L25.302 289.672z" style="fill:#fff;stroke:none"/><path d="M147.66 148.012 6 289.672 147.669 431.34 289.329 573l141.687-141.688 141.688-141.688-141.64-141.64C353.165 70.086 289.403 6.344 289.375 6.344c-.029 0-63.8 63.752-141.717 141.668zm260.962 22.413 119.199 119.2L408.565 408.88 289.32 528.127 170.129 408.87 50.94 289.615l119.2-119.2C235.696 104.86 289.347 51.227 289.376 51.227c.028 0 53.689 53.642 119.246 119.2z" style="fill:red;stroke:none"/><path d="M393.5 171.563c-.087.01-.148.104-.219.28-.059.178-11.338 32.327-25.062 71.47-13.725 39.142-24.984 71.222-25.031 71.28-.142.142-1.137-.217-1.125-.406.011-.13 29.33-91.353 29.625-92.156.035-.094-.842-.687-2.625-1.75-2.658-1.582-2.97-1.751-2.97-1.562 0 .165-24.42 95.359-24.468 95.406-.024.035-.69-.12-1.469-.344-1.866-.531-5.038-1.177-7.094-1.437-2.303-.284-7.546-.296-9.625 0-9.708 1.358-17.575 5.374-24.437 12.437-4.819 4.961-8.656 11.394-10.688 17.938-.248.78-.484 1.453-.53 1.5-.048.047-3.778-2.68-8.313-6.094-4.536-3.413-8.29-6.192-8.313-6.156-.023.023.433.96 1 2.094l1.031 2.062 7.125 4.781c6.886 4.618 7.09 4.787 7.032 5.094-.06.295.172.58 2.156 2.719a378.484 378.484 0 0 0 2.969 3.187l.781.781 2.094-.125 2.094-.125 3.937 2.625c2.161 1.43 3.795 2.478 3.594 2.313-.19-.165-1.756-1.369-3.469-2.656-1.7-1.276-3.02-2.332-2.938-2.344.083-.012 2.815-.167 6.063-.344l5.906-.312 8.5 4.281c4.701 2.339 8.59 4.25 8.625 4.25.036 0 2.171-2.546 4.781-5.688 2.61-3.13 4.824-5.78 4.907-5.875.13-.153-.213-1.047-2.031-5.5-1.193-2.917-2.15-5.32-2.125-5.343.023-.012 2.998.297 6.625.687 3.626.39 6.609.692 6.656.656.035-.047.511-1.85 1.031-4l.969-3.937 2.937-.031c1.618-.012 3.39.015 3.969.062l1.063.094-10.063 11c-5.551 6.036-10.183 11.116-10.313 11.281-.448.532 3.552-3.476 12.907-12.937l9.219-9.344 3.437-.063 3.406-.062-.594-.875A38.385 38.385 0 0 0 363 328.5c-.449-.543-.793-1.015-.781-1.063.023-.047 1.308-1.386 2.844-2.968l2.78-2.844.313.656c.166.378.281.722.281.781 0 .19.155.13 4.844-2.03 2.422-1.111 4.453-1.966 4.5-1.907.048.047.492 1.56 1 3.344.496 1.783.953 3.296 1 3.344.083.094 14.368-11.442 14.781-11.938.095-.13 1.871-3.36 3.938-7.188a744.669 744.669 0 0 1 4.063-7.468c.165-.284.238-.524.156-.5-.071.023-3.012 2.457-6.531 5.375l-6.407 5.281-4.594.125c-2.539.06-4.799.086-5 .063-.342-.036 2.197-2.62 42.97-43.782 23.823-24.047 43.343-43.765 43.343-43.812 0-.047-1.13-1.204-2.5-2.563-2.339-2.338-2.499-2.45-2.688-2.25-.106.107-19.924 21.681-44.03 47.938l-43.813 47.75L370 315.28c-1.902 1.335-3.523 2.492-3.594 2.563-.082.082.01.386.281 1 .331.78.361.916.22 1.094-.13.165-4.69 5.191-5.563 6.125-.213.224-.223.21-1.25-.782-1.996-1.972-3.885-3.491-6.188-5.062l-1.125-.781 21.719-37.313c17.126-29.422 21.68-37.331 21.563-37.438-.071-.082-1.194-.782-2.47-1.562l-2.343-1.438-.406.72c-.213.4-9.015 17.79-19.563 38.624-10.878 21.52-19.218 37.875-19.312 37.875-.118 0-.103-.14.062-.625.13-.33 11.653-32.464 25.625-71.406 13.985-38.942 25.399-70.835 25.375-70.906-.047-.107-8.54-4.076-9.437-4.406-.036-.012-.065-.004-.094 0zm-43.094 54.53-1.219 3.032-1.187 3.063-2.313-.907c-1.287-.508-2.37-.89-2.406-.844-.035.048-.58 2.605-1.219 5.688-.625 3.083-1.152 5.706-1.187 5.813-.035.141.485.426 2.375 1.312 1.358.638 2.503 1.203 2.563 1.25.047.047.627 2.133 1.312 4.625.673 2.48 1.258 4.539 1.281 4.563.024.023.987-1.35 2.156-3.063 2.221-3.248 2.215-3.237 9.22-10.844l.374-.406-2.031-6.563-2.031-6.562-.875-.063c-.485-.047-1.757-.081-2.844-.093h-1.969zM511.47 255.25c-.047 0-.121.14-.156.281-.367 1.217-4.11 12.797-4.157 12.844-.023.035-2.554.17-5.625.313l-5.594.25-1.593 1.187c-.874.673-1.602 1.238-1.625 1.25-.036.035-1.524 9.558-1.5 9.594.047.035 8.714 5 8.75 5 .023 0 1.598-1.676 3.5-3.719 1.913-2.043 3.496-3.73 3.531-3.719.035 0 3.166 2.132 6.969 4.719l6.906 4.688.031-1.72c.012-.944.008-4.798-.062-8.53l-.125-6.782-4.594-7.844c-2.528-4.299-4.609-7.812-4.656-7.812zm-117.531 4.781-.22.281c-.117.154-.825 1.176-1.593 2.25l-1.375 1.938-.875 4.375c-.472 2.41-.875 4.495-.875 4.625.012.165 1.003 1.1 3.094 2.906 1.7 1.465 3.116 2.656 3.187 2.656.06 0 1.127-1.21 2.344-2.687l2.219-2.719.5-2.437c.271-1.335.554-2.735.625-3.125l.125-.719-1.344-3.625c-.732-1.984-1.37-3.64-1.406-3.688-.048-.047-.546.449-1.125 1.063l-1.031 1.125-1.125-1.125-1.125-1.094zm72.218 6.469c-.059 0-26.098 18.332-57.906 40.75-31.808 22.43-57.836 40.789-57.813 40.813.012.023 26.095-16.115 57.938-35.875l57.875-35.938v-4.906c0-2.681-.046-4.856-.094-4.844zm-11.437 31.875L452.375 301 450 303.594l-1.125 3.031c-.626 1.665-1.137 3.039-1.125 3.063.047.047 20.64 2.516 20.688 2.468.023-.012-3.065-3.138-6.844-6.906l-6.875-6.875zm94.969 1.813c-.06-.012-45.929 11.847-101.938 26.375-56.009 14.527-101.836 26.445-101.813 26.468.036.036 206.543-46.741 206.625-46.812.071-.048-2.78-6.008-2.875-6.031zm-120 14c-.06.011-15.323 7.2-33.938 16-18.615 8.799-33.937 16.054-34.031 16.125-.13.094-.088.102.125.03.413-.141 68.425-26.382 68.437-26.406.012 0-.077-1.292-.219-2.875-.141-1.736-.292-2.875-.375-2.875zm147.562 7.093c-.154.012-50.48 8.551-111.875 18.969-61.383 10.406-111.772 18.938-111.938 18.938-.2.011-.715-.343-1.625-1.063l-1.375-1.094-.062 4.531-.063 4.532-3.53 2.406c-1.95 1.311-3.606 2.363-3.688 2.375-.083 0-1.576-.998-3.313-2.25-4.606-3.33-4.675-3.32-.281.094 1.654 1.287 3.078 2.359 3.125 2.406.118.106-5.553 3.934-5.719 3.875-.082-.024-14.02-11.899-17.469-14.875l-.78-.688-6.47 5.594c-3.555 3.083-6.515 5.625-6.562 5.625-.06 0-3.72-.955-8.125-2.125l-8-2.125 2.25.063c1.24.035 3.113.058 4.188.093 1.854.048-3.431-.348-9.75-.75-1.17-.082-7.508-.512-14.063-.937l-11.938-.781-.03-.344c-.072-.402-.024-.386-1.063-.031-.744.248-.853.235-3.156.093-1.3-.07-2.646-.152-3-.187l-.657-.094-.562-1.031-.563-1-4.031-.219c-2.22-.118-4.325-.187-4.656-.187h-.594l-.531.843-.5.875-.594-.062c-.33-.012-12.693-.8-27.469-1.781-14.776-.969-27.064-1.762-27.312-1.75l-.438.031 1.375 1.469c1.193 1.299 1.415 1.496 1.781 1.531.237.024 11.926.496 25.97 1.062 14.043.567 25.589 1.059 25.624 1.094.036.036-.53 1.026-1.25 2.219-.708 1.181-1.278 2.222-1.219 2.281.048.047 1.762 1.266 3.782 2.719l3.656 2.656 4.031.656c2.209.378 4.105.66 4.188.625.082-.023.69-.952 1.375-2.062l1.25-2.031h5.125v-.438c0-.248-.089-1.653-.219-3.094-.13-1.452-.223-2.652-.188-2.687.071-.07 25.507.905 26.157 1 .307.047.375.084.375.344 0 .437.621 3.182 1.094 4.812.401 1.37.404 1.379.156 1.438-.13.023-31.428 3.61-69.531 7.968-38.104 4.37-69.27 7.97-69.282 7.97-.035.023-.285 3.058-.25 3.093.024.012 31.31-4.214 69.531-9.375 38.222-5.162 69.582-9.375 69.688-9.375.13 0 .292.254.469.75.153.413.502 1.257.75 1.906.248.638.43 1.176.406 1.188-.024.012-23.417 5.192-52 11.5-28.583 6.307-52.058 11.534-52.188 11.593-.2.083-.322.388-.593 1.782-.19.921-.286 1.714-.25 1.75.059.047 104.777-25.749 105.25-25.938.07-.023.299.306.5.719.26.52.313.777.219.812-.083.024-7.972 2.156-17.563 4.72l-17.469 4.624-.219 1.781c-.13.98-.23 1.801-.218 1.813.012.012 8.16-2.654 18.094-5.938 18.118-5.976 18.238-6.015 18.25-5.53 0 .07-12.726 6.996-28.282 15.405l-28.312 15.282.093 1.125c.048.614.078 1.314.125 1.562l.094.438 28.094-16.531c15.46-9.095 28.206-16.61 28.313-16.657.153-.094.376.193 1.156 1.469.886 1.465 2.084 3.171 3.312 4.719.473.614.502.702.313.844-.107.07-15 11.96-33.094 26.406L230.625 441l2.313 2.281c1.287 1.252 2.436 2.316 2.53 2.375.142.083 4.539-3.926 19.657-17.781 10.725-9.839 19.508-17.856 19.531-17.844.024.024-.143.38-.344.781-.2.39-.343.754-.343.813 0 .083 3.244 3.752 4 4.531.2.201.306.172 2.562-.844l2.344-1.062 1.188 1.188 1.187 1.156 2.344-1.406 2.375-1.438.906-3.031c.508-1.677.894-3.125.906-3.219 0-.106-.892-.74-2.156-1.531l-2.125-1.344-3.438-.063-3.406-.062 8.406-7.719c4.619-4.228 8.414-7.687 8.438-7.687.012 0 .96.909 2.094 2.031s2.6 2.48 3.25 3c7.878 6.307 16.83 9.365 26.469 9.094 7.57-.213 14.305-2.35 20.718-6.531 2.646-1.725 4.31-3.076 6.719-5.438l1.5-1.438 22.469 18.094c12.378 9.969 22.507 18.106 22.531 18.094.012-.024-.576-1.424-1.344-3.125l-1.375-3.094-20.875-15.312-20.875-15.281.406-.5c.225-.26.829-1.019 1.313-1.657.496-.626.953-1.137 1-1.125.06.024 12.657 9.856 28 21.844 15.343 11.988 28.084 21.936 28.344 22.125l.469.344 1.343-1.344c.744-.744 1.356-1.39 1.344-1.438-.024-.035-13.167-9.577-29.219-21.187-16.04-11.61-29.268-21.175-29.375-21.281-.189-.177-.154-.27.531-1.344.461-.72.781-1.13.875-1.094.083.036 12.008 7.306 26.5 16.188 14.481 8.87 26.371 16.086 26.407 16.062.023-.035-.603-1.382-1.406-3l-1.47-2.937-24.812-13.625-24.812-13.625.844-1.656c.472-.91 1.056-2.067 1.28-2.563l.407-.906 15.375 3.969c8.457 2.185 15.39 4.015 15.438 4.062.094.095-1.085 1.75-1.25 1.75-.06 0-2.15-.395-4.594-.844-2.457-.46-4.53-.812-4.625-.812-.13 0-.65.827-1.5 2.375l-1.313 2.406 3.094 2.281c1.7 1.264 3.848 2.846 4.781 3.531l1.688 1.25 12.562 2.157c6.898 1.18 12.57 2.117 12.594 2.094.035-.036.257-3.234.375-5.313l.031-.719-2.062-2.375-2.063-2.344-2.562-1.093c-1.418-.603-2.543-1.113-2.532-1.125.012-.012 8.04 2.035 17.844 4.562 9.804 2.528 17.906 4.594 18 4.594.083 0 .125-.035.125-.094 0-.047.356-2.462.781-5.343.426-2.882.762-5.227.75-5.25-.023-.012-18.073-2.574-40.125-5.657-22.04-3.082-40.1-5.632-40.125-5.656-.023-.024.213-.844.532-1.812.33-.969.593-1.832.593-1.938 0-.13-.861-.478-3.093-1.281l-3.094-1.094-.625-1.094c-.343-.579-.598-1.09-.563-1.125.024-.035 17.366.778 38.532 1.781l38.469 1.813.312.313.313.343 6.968.469 6.938.469.406-.438.406-.437 49.188 2.344c27.06 1.275 49.207 2.293 49.219 2.28.023-.023-.91-.73-2.032-1.593l-2.031-1.594-46.344-1.437c-25.488-.815-46.405-1.488-46.5-1.5-.094-.024 1.3-1.705 3.344-4.031 1.937-2.197 3.492-4.02 3.469-4.032-.012-.023-5.584-2.5-12.375-5.5-6.792-3-12.36-5.496-12.406-5.531-.048-.024-1.588 1.389-3.407 3.125l-3.312 3.156-4.688 1.563c-2.563.862-4.695 1.59-4.719 1.625-.035.023.43 1.935 1.032 4.25.602 2.315 1.035 4.265 1 4.312-.047.036-13.965-.394-30.938-.937-16.96-.532-30.89-.95-30.937-.938-.047 0-.318-.43-.625-.937-.532-.874-.655-1.004-3.844-3.531l-3.313-2.594.625-.094c.343-.047 50.774-6.892 112.063-15.219l111.438-15.125.062-3.812v-3.813h-.25zm-314.375 18.375c-.004.026.013.07.031.125.047.13.256.707.469 1.25l.406.969 18.469 8.906c10.146 4.89 18.476 8.856 18.5 8.844.012-.024-8.226-4.43-18.313-9.781-10.074-5.35-18.614-9.874-18.968-10.063-.434-.248-.583-.326-.594-.25zm-16.219 10.813c-.035 0-.824.673-1.781 1.5s-1.703 1.527-1.656 1.562c.118.095 55.054 8.665 55.125 8.594.047-.035-51.487-11.668-51.688-11.656zm52.063 11.687c-.13-.012-.204.027-.156.063.035.035.136.035.218 0 .095-.036.068-.063-.062-.063zm-45.688 2.688.813.062c.437.047.967.082 1.156.094.295 0 .259.057-.344.281-1.228.473-1.17.473-1.406 0l-.219-.437zm181.625 1.562c.071 0 .636.526 1.25 1.188l1.094 1.219-2-.094c-1.11-.047-3.285-.11-4.844-.156-1.559-.036-2.75-.121-2.656-.157.307-.106 7.038-1.988 7.156-2zm-136.312.25c-.028.012-.024.045 0 .063.035.035.136.035.219 0 .094-.036.036-.063-.094-.063-.065-.006-.097-.012-.125 0zm-90.031 3.563c-.048-.012-1.704 1.199-3.688 2.687l-3.594 2.656L201 377c-.035 1.406-.041 1.453.219 1.5.437.095 19.71 1.848 19.875 1.813.118-.036-12.545-10.035-12.781-10.094zm23.968 23.031c0 .106 7.226 7.063 7.344 7.063.07 0 1.274-.477 2.656-1.032l2.5-1v-4.375h-.312c-.414 0-10.536-.554-11.469-.625-.413-.035-.719-.055-.719-.031zm-26.531 18.375c-.035 0-.101.085-.125.156-.035.083-.596 1.975-1.281 4.219l-1.25 4.094.375.531c2.043 2.847 7.116 9.758 7.187 9.781.047.012.283-.553.531-1.25.249-.708.767-2.163 1.157-3.25l.687-1.969.438-.062c.248-.035 1.258-.109 2.25-.156l1.781-.063 1.406-1.531 1.406-1.5.75-2.281c.402-1.24.68-2.258.657-2.281-.071-.071-6.652-2.532-6.781-2.532-.071 0-.55.546-1.094 1.219-.544.685-1.074 1.211-1.156 1.188-.071-.024-1.646-.987-3.5-2.157-1.855-1.18-3.403-2.156-3.438-2.156z" transform="scale(.8)" style="fill:#000;stroke:none"/></svg>