<svg xmlns="http://www.w3.org/2000/svg" shape-rendering="geometricPrecision" text-rendering="geometricPrecision" image-rendering="optimizeQuality" fill-rule="evenodd" clip-rule="evenodd" viewBox="0 0 512 484.13"><path fill-rule="nonzero" d="m42.91 425.26 67.53-27.93c5.15-2.11 10.84-.91 14.69 2.63 19.44 17.83 42.15 32.12 67.1 41.82 24.01 9.35 50.22 14.48 77.71 14.48 59.15 0 112.7-23.97 151.46-62.74 38.76-38.75 62.73-92.31 62.73-151.46 0-59.15-23.97-112.7-62.73-151.46-38.76-38.76-92.31-62.73-151.46-62.73-59.15 0-112.71 23.97-151.46 62.73-38.76 38.76-62.74 92.31-62.74 151.46 0 17.49 2.04 34.34 5.88 50.32 3.99 16.58 9.92 32.44 17.53 47.29 2.08 4.07 1.95 8.69.07 12.49l.04.03-36.35 73.07zm204.77-272.59c0-4.03.71-7.77 2.13-11.2 1.41-3.42 3.55-6.54 6.39-9.33 2.83-2.79 5.93-4.9 9.27-6.32 3.36-1.41 6.97-2.13 10.84-2.13 3.88 0 7.49.72 10.81 2.13 3.34 1.42 6.39 3.53 9.17 6.34 2.78 2.79 4.88 5.89 6.26 9.32 1.4 3.42 2.09 7.16 2.09 11.19 0 3.93-.69 7.6-2.08 11-1.39 3.4-3.47 6.54-6.26 9.4-2.77 2.84-5.82 4.99-9.15 6.42-3.34 1.43-6.94 2.16-10.84 2.16-3.98 0-7.67-.71-11.06-2.13-3.37-1.42-6.46-3.55-9.25-6.38-2.77-2.85-4.86-5.97-6.24-9.38-1.4-3.41-2.08-7.1-2.08-11.09zm12.61 167.69c-1.05 3.74-3.16 11.07 3.1 11.07 1.35 0 3.08-.76 5.14-2.25 2.23-1.62 4.79-4.06 7.66-7.3 2.91-3.3 5.94-7.19 9.09-11.69 3.14-4.48 6.44-9.62 9.87-15.35.37-.61 1.18-.82 1.79-.45l11.64 8.63c.55.41.68 1.18.31 1.76-5.35 9.3-10.76 17.43-16.23 24.36-5.51 6.98-11.1 12.77-16.76 17.34l-.09.07c-5.67 4.59-11.47 8.04-17.42 10.35-16.56 6.41-42.7 5.37-50.19-13.95-4.73-12.21-.84-26.07 2.88-38.01l18.78-56.88c1.2-4.32 2.72-9.05 3.28-13.5.91-7.39-2.36-12.18-10.42-12.18H206.3c-.72 0-1.3-.59-1.3-1.31l.07-.45 4.32-15.7c.15-.58.69-.97 1.26-.96l83.89-2.63c.72-.03 1.32.54 1.35 1.25l-.06.42-35.54 117.36zM113 426.33l-92.87 38.39a13.89 13.89 0 0 1-12.41.01c-6.88-3.43-9.68-11.79-6.26-18.67L51.29 345.9a240.606 240.606 0 0 1-16.66-47.1 242.111 242.111 0 0 1-6.75-56.74c0-66.84 27.09-127.36 70.9-171.16C142.58 27.1 203.1 0 269.94 0S397.3 27.1 441.1 70.9c43.8 43.8 70.9 104.32 70.9 171.16s-27.1 127.36-70.9 171.16c-43.8 43.81-104.32 70.91-171.16 70.91-30.86 0-60.46-5.83-87.72-16.44A242.153 242.153 0 0 1 113 426.33z"/></svg>