<svg xmlns="http://www.w3.org/2000/svg" shape-rendering="geometricPrecision" text-rendering="geometricPrecision" image-rendering="optimizeQuality" fill-rule="evenodd" clip-rule="evenodd" viewBox="0 0 512 512"><path fill-rule="nonzero" d="M75.01 0h361.98c20.64 0 39.4 8.44 52.98 22.03C503.56 35.61 512 54.37 512 75.01v361.98c0 20.64-8.44 39.4-22.03 52.98-13.58 13.59-32.34 22.03-52.98 22.03H75.01c-20.62 0-39.36-8.44-52.95-22.03l-.03-.03C8.44 476.35 0 457.61 0 436.99V75.01c0-20.62 8.44-39.36 22.03-52.95l.03-.03C35.65 8.44 54.39 0 75.01 0zm77.23 301.8 55.97 56.47 121.14-121.14-56.2-56.24L152.24 301.8zm39.77 64.55-47.81-48.23-14.71 52.36c-1.87 6.67-3.29 12.16-4.27 16.48 17.65-5.27 35.16-10.81 52.73-16.31l13.91-4.25.15-.05zm148.17-242.21c-.81-.8-1.63-1.38-2.45-1.72-.75-.32-1.65-.48-2.71-.48-1.04 0-1.94.16-2.68.48-.77.32-1.57.91-2.39 1.72l-19.3 19.3 56.22 56.47 19.57-19.57c.64-.64 1.11-1.34 1.39-2.06.34-.87.51-1.91.51-3.07s-.15-2.18-.48-3c-.29-.74-.75-1.45-1.38-2.07l-46.3-46zm4.22-17.56c2.91 1.23 5.54 3.02 7.9 5.37l46.3 46c2.33 2.31 4.07 4.99 5.23 7.92 1.19 3 1.76 6.15 1.76 9.34 0 3.24-.56 6.38-1.72 9.33a23.212 23.212 0 0 1-5.23 7.99l-25.7 25.67c-3.37 3.35-8.82 3.33-12.16-.04l-68.39-68.65a8.625 8.625 0 0 1 0-12.2l25.36-25.36c2.32-2.32 4.96-4.11 7.92-5.37 2.96-1.25 6.08-1.89 9.35-1.89 3.27 0 6.4.63 9.38 1.89zM210.24 378.85 183 387.08c-17.51 5.51-34.93 10.92-52.47 16.29-6.08 1.84-10.12 3.03-12.07 3.57l-.89.2c-.82.15-1.58.19-2.31.14l-1.23-.18c-4.29-.77-6.77-3.6-7.46-8.46l-.06-.48c-.15-1.44-.1-3.2.13-5.23.61-5.31 2.7-14.35 6.27-27.1l18.57-66.07a8.457 8.457 0 0 1 2.2-3.77l133.36-133.38a8.625 8.625 0 0 1 12.2 0l68.38 68.48c3.35 3.36 3.33 8.79-.02 12.14L214.3 376.57a8.571 8.571 0 0 1-4.06 2.28zm226.75-361.6H75.01c-15.89 0-30.33 6.5-40.8 16.96-10.46 10.47-16.96 24.91-16.96 40.8v361.98c0 15.89 6.5 30.33 16.96 40.8 10.47 10.46 24.91 16.96 40.8 16.96h361.98c15.88 0 30.32-6.5 40.79-16.97 10.47-10.47 16.97-24.91 16.97-40.79V75.01c0-15.88-6.5-30.32-16.97-40.79-10.47-10.47-24.91-16.97-40.79-16.97z"/></svg>