<?xml version="1.0" encoding="utf-8"?><svg version="1.1" id="Layer_1" xmlns="http://www.w3.org/2000/svg" xmlns:xlink="http://www.w3.org/1999/xlink" x="0px" y="0px" viewBox="0 0 122.87 101.89" style="enable-background:new 0 0 122.87 101.89" xml:space="preserve"><style type="text/css"><![CDATA[
	.st0{fill-rule:evenodd;clip-rule:evenodd;}
]]></style><g><path class="st0" d="M3.34,0h116.19c1.84,0,3.34,1.5,3.34,3.34v76.98c0,1.84-1.5,3.34-3.34,3.34H3.34C1.5,83.66,0,82.16,0,80.32 V3.34C0,1.5,1.5,0,3.34,0L3.34,0z M45.05,24.44v10.93h10.94l-3.29-3.29c-0.27-0.26-0.27-0.69,0-0.96c0.67-0.6,1.1-0.96,1.84-1.47 c0.98-0.64,2.06-1.15,3.21-1.48c1.09-0.32,2.24-0.5,3.42-0.51l0.07,0c1.65,0,3.24,0.33,4.69,0.93c1.5,0.62,2.85,1.54,3.98,2.66 c1.13,1.13,2.04,2.48,2.66,3.98c0.6,1.45,0.93,3.03,0.93,4.68c0,1.67-0.33,3.25-0.93,4.7c-0.62,1.5-1.53,2.85-2.66,3.98 c-1.13,1.13-2.48,2.04-3.98,2.66c-1.45,0.6-3.03,0.93-4.68,0.93h-0.02c-0.58,0-1.18-0.04-1.76-0.13c-0.57-0.08-1.16-0.21-1.73-0.38 c-0.7-0.24-1.15-0.42-1.83-0.71c-1.5-0.73-2.84-1.76-3.93-3.01c-1.06-1.22-1.89-2.66-2.4-4.23l-5.8,0.01 c0.11,0.52,0.25,1.04,0.41,1.55c0.17,0.56,0.38,1.1,0.6,1.62c0.21,0.5,0.46,1.01,0.73,1.51l0.02,0.04 c0.26,0.48,0.55,0.96,0.86,1.41c1.63,2.44,3.85,4.45,6.45,5.83c2.48,1.32,5.32,2.08,8.34,2.09l0.06,0c2.42,0,4.73-0.48,6.83-1.35 c2.16-0.9,4.11-2.21,5.74-3.83l0.1-0.1c1.62-1.64,2.94-3.59,3.83-5.75c0.87-2.09,1.35-4.4,1.35-6.83c0-2.44-0.48-4.75-1.35-6.84 l-0.01-0.04c-0.9-2.17-2.23-4.12-3.87-5.76c-1.64-1.64-3.61-2.97-5.79-3.88c-2.09-0.87-4.4-1.35-6.82-1.35h-0.02 c-1.26,0-2.48,0.13-3.65,0.37l-0.03,0c-1.2,0.25-2.35,0.62-3.45,1.1l-1.05,0.5c-0.79,0.41-1.56,0.88-2.27,1.4l-0.04,0.03 c-0.7,0.51-1.37,1.08-2,1.7c-0.27,0.26-0.69,0.26-0.95,0L45.05,24.44L45.05,24.44z M46.29,88.27h30.3 c0.08,5.24,2.24,9.94,8.09,13.63H38.2C42.88,98.5,46.31,94.38,46.29,88.27L46.29,88.27L46.29,88.27L46.29,88.27z M7.33,4.77h108.23 c1.63,0,2.95,1.33,2.95,2.95v60.24c0,1.62-1.33,2.95-2.95,2.95H7.33c-1.62,0-2.95-1.33-2.95-2.95V7.72 C4.37,6.09,5.71,4.77,7.33,4.77L7.33,4.77z"/></g></svg>