<?xml version="1.0" encoding="utf-8"?><svg version="1.1" id="Layer_1" xmlns="http://www.w3.org/2000/svg" xmlns:xlink="http://www.w3.org/1999/xlink" x="0px" y="0px" viewBox="0 0 122.38 122.88" style="enable-background:new 0 0 122.38 122.88" xml:space="preserve"><g><path d="M41.86,8.81c3.31,3.31,4.55,8.13,3.88,13.23c-0.7,5.32-3.46,10.94-8.11,15.59c-4.65,4.65-10.27,7.41-15.59,8.11 c-5.1,0.67-9.92-0.57-13.23-3.88c-3.31-3.31-4.55-8.12-3.88-13.23c0.7-5.32,3.46-10.94,8.11-15.59c4.65-4.65,10.27-7.41,15.59-8.11 C33.73,4.25,38.55,5.5,41.86,8.81L41.86,8.81z M17.72,13.82c-1.1,0.71-1.41,2.18-0.7,3.28c0.71,1.1,2.18,1.41,3.28,0.7 c1.52-0.99,2.95-1.57,4.29-1.86c1.3-0.28,2.5-0.29,3.6-0.12c2.26,0.35,4.06,1.3,5.33,2.61c1.1,1.13,1.81,2.55,2.06,4.06 c0.25,1.54,0.04,3.19-0.69,4.79c-0.94,2.05-2.74,4.01-5.53,5.56c-1.08,0.6-2.14,1.09-3.17,1.44c-0.95,0.32-1.86,0.51-2.72,0.54 c-1.51,0.05-3.08-0.56-4.39-1.53c-0.96-0.72-1.75-1.63-2.21-2.6c-0.41-0.86-0.58-1.77-0.37-2.63c0.19-0.8,0.72-1.63,1.68-2.42 c1.06-0.87,2.39-1.46,3.66-1.64c0.76-0.11,1.46-0.07,2,0.15c0.4,0.16,0.73,0.46,0.92,0.91c0.26,0.59,0.35,1.43,0.2,2.58 c-0.16,1.3,0.76,2.48,2.05,2.65s2.48-0.76,2.65-2.05c0.26-2.05,0.03-3.73-0.56-5.07c-0.73-1.67-1.96-2.78-3.47-3.4 c-1.36-0.56-2.92-0.69-4.47-0.47c-2.1,0.3-4.28,1.27-6,2.68c-1.82,1.5-2.85,3.21-3.28,4.98c-0.48,1.99-0.16,3.98,0.7,5.77 c0.81,1.68,2.1,3.19,3.65,4.35c2.11,1.59,4.76,2.56,7.38,2.48c1.36-0.04,2.73-0.32,4.1-0.78c1.29-0.44,2.61-1.05,3.95-1.79 c3.73-2.07,6.2-4.81,7.53-7.71c1.14-2.48,1.47-5.09,1.06-7.54c-0.41-2.47-1.55-4.76-3.34-6.6c-1.95-2.01-4.67-3.47-8.01-3.99 c-1.66-0.26-3.44-0.26-5.33,0.16C21.74,11.69,19.78,12.49,17.72,13.82L17.72,13.82z M97.16,82.7c0.5,1.21,1.89,1.79,3.1,1.28 c1.21-0.5,1.79-1.89,1.28-3.1c-0.62-1.47-2.23-3.51-4.13-5.93c-3.29-4.17-7.58-9.6-7.66-13.1c-0.03-1.31-1.11-2.35-2.42-2.32 s-2.35,1.11-2.32,2.42c0.12,5.09,4.96,11.23,8.68,15.94C95.37,80.01,96.78,81.8,97.16,82.7L97.16,82.7z M80.91,99.54 c-1.1-0.71-2.57-0.4-3.28,0.7s-0.4,2.57,0.7,3.28c5.88,3.81,8.99,7.94,11.56,11.35c0.85,1.13,1.65,2.19,2.48,3.16 c-0.65,0.07-1.3,0.11-1.94,0.11c-3.02-0.02-6-0.98-8.68-3.33L54,87.06c1.49,0.19,2.94,0.51,4.36,0.94 c3.21,0.97,6.25,2.52,9.18,4.52c1.08,0.74,2.56,0.46,3.3-0.62c0.74-1.08,0.46-2.56-0.62-3.3c-3.32-2.27-6.8-4.04-10.48-5.15 c-3.38-1.02-6.93-1.5-10.67-1.32L17.53,50.59c1.67,0.13,3.38,0.08,5.12-0.15c0.73-0.1,1.46-0.22,2.19-0.38 c10.53,10.82,22.1,19.28,32.77,25.82c10.93,6.71,20.92,11.41,27.84,14.58c1.19,0.54,2.6,0.02,3.14-1.17s0.02-2.6-1.17-3.14 c-6.79-3.11-16.59-7.73-27.34-14.32c-9.81-6.02-20.39-13.69-30.15-23.37c2.96-1.23,5.86-2.96,8.55-5.18 c2.36,2.95,5.06,5.4,7.53,7.64c2.42,2.19,4.6,4.17,5.76,6.05c0.69,1.11,2.15,1.46,3.26,0.77s1.46-2.15,0.77-3.26 c-1.51-2.45-3.93-4.64-6.62-7.07c-2.4-2.17-5.04-4.56-7.24-7.4c3.01-3.25,5.27-6.88,6.73-10.6c5.11,2.8,8.41,7.99,11.87,13.42 c4.13,6.49,8.46,13.31,16.4,17.7c1.15,0.63,2.59,0.21,3.22-0.94s0.21-2.59-0.94-3.22c-6.86-3.79-10.86-10.09-14.67-16.08 c-3.99-6.28-7.79-12.26-14.48-15.5c0.15-0.72,0.28-1.44,0.37-2.15c0.23-1.74,0.28-3.46,0.15-5.13L115.02,82 c1.24,1.65,1.95,3.32,2.3,5.02c0.38,1.8,0.37,3.69,0.2,5.65c-0.19,2.23-0.82,4.51-1.8,6.75c-1.1-0.6-2.15-1.44-3.16-2.48 c-1.67-1.73-3.22-4.03-4.68-6.77c-0.62-1.16-2.06-1.6-3.21-0.99c-1.16,0.62-1.6,2.06-0.99,3.21c1.65,3.11,3.46,5.76,5.46,7.83 c1.35,1.4,2.78,2.53,4.31,3.37c-0.22,0.34-0.45,0.69-0.69,1.02c-1.41,2.01-3.06,3.9-4.87,5.58l-0.34-0.43 c-3.15-3.95-8.11-10.18-13.31-12.45c-1.2-0.52-2.6,0.03-3.12,1.23c-0.52,1.2,0.03,2.6,1.23,3.12c4.11,1.79,8.63,7.46,11.49,11.05 l0.37,0.46c-0.7,0.49-1.41,0.94-2.14,1.36c-1.41,0.82-2.88,1.54-4.39,2.13c-1.36-1.17-2.6-2.81-4-4.67 C90.89,108.31,87.5,103.82,80.91,99.54L80.91,99.54z M108.96,115.54c0.08-0.05,0.15-0.11,0.22-0.17l0.06-0.06 c2.8-2.29,5.33-5.02,7.41-7.98c0.81-1.16,1.56-2.36,2.22-3.59c0.07-0.1,0.12-0.21,0.17-0.32c1.77-3.35,2.92-6.89,3.21-10.36 c0.2-2.34,0.19-4.67-0.3-7.01c-0.5-2.38-1.48-4.72-3.24-7.01c-0.05-0.07-0.1-0.13-0.16-0.19l-0.04-0.04l0-0.01l-0.04-0.04l0,0 L44.78,4.99c-0.1-0.1-0.2-0.18-0.31-0.26C40.12,0.85,34.2-0.59,28.02,0.22C21.69,1.05,15.07,4.27,9.67,9.67 c-5.4,5.4-8.62,12.02-9.45,18.35c-0.81,6.18,0.64,12.11,4.51,16.46c0.08,0.1,0.16,0.21,0.25,0.3l73.61,73.61 c0.15,0.15,0.31,0.27,0.48,0.37c3.5,2.9,7.38,4.09,11.31,4.12c4.89,0.04,9.78-1.74,14.06-4.22 C106,117.75,107.52,116.71,108.96,115.54L108.96,115.54z M64.23,60.27c-1.21-0.5-2.6,0.07-3.1,1.28c-0.5,1.21,0.07,2.6,1.28,3.1 c0.91,0.38,2.95,1.81,5.43,3.54c3.32,2.32,7.37,5.16,11.09,7.13c1.16,0.61,2.59,0.17,3.21-0.99c0.61-1.16,0.17-2.59-0.99-3.21 c-3.51-1.86-7.4-4.58-10.59-6.81C67.82,62.41,65.57,60.84,64.23,60.27L64.23,60.27z"/></g></svg>